<?xml version="1.0" encoding="UTF-8"?>
<svg width="80" height="80" viewBox="0 0 80 80" xmlns="http://www.w3.org/2000/svg">
  <!-- Book base -->
  <path d="M20,20 L20,60 L60,60 L60,20 L20,20 Z" 
        fill="none" 
        stroke="#2C5530" 
        stroke-width="3"
        stroke-linejoin="round"/>
  
  <!-- Book pages -->
  <path d="M20,20 C30,20 50,20 60,20" 
        fill="none" 
        stroke="#2C5530" 
        stroke-width="3"
        stroke-linecap="round"/>
  
  <!-- Growing plant from book -->
  <path d="M40,20 C40,20 35,15 40,10 C45,15 40,20 40,20" 
        fill="#2C5530"/>
  
  <path d="M40,10 L40,20" 
        stroke="#2C5530" 
        stroke-width="2"
        stroke-linecap="round"/>
  
  <!-- Leaf decorations -->
  <path d="M25,30 C20,35 30,40 25,35" 
        fill="none" 
        stroke="#2C5530" 
        stroke-width="2"
        stroke-linecap="round"/>
  
  <path d="M55,30 C50,35 60,40 55,35" 
        fill="none" 
        stroke="#2C5530" 
        stroke-width="2"
        stroke-linecap="round"/>
  
  <!-- Text lines -->
  <path d="M30,40 L50,40" 
        stroke="#8B4513" 
        stroke-width="2"
        stroke-linecap="round"/>
  
  <path d="M30,45 L50,45" 
        stroke="#8B4513" 
        stroke-width="2"
        stroke-linecap="round"/>
  
  <path d="M30,50 L50,50" 
        stroke="#8B4513" 
        stroke-width="2"
        stroke-linecap="round"/>
</svg> 